<?xml version="1.0" encoding="utf-8"?><svg xmlns="http://www.w3.org/2000/svg" xmlns:xlink="http://www.w3.org/1999/xlink"><symbol viewBox="0 0 24 24" id="arrow-down-line" xmlns="http://www.w3.org/2000/svg"><path fill="none" d="M0 0h24v24H0z"/><path d="M12 13.172l4.95-4.95 1.414 1.414L12 16 5.636 9.636 7.05 8.222z"/></symbol><symbol viewBox="0 0 24 24" id="arrow-left" xmlns="http://www.w3.org/2000/svg"><path fill-rule="evenodd" clip-rule="evenodd" d="M3 12.451l-.009.008-.45-.468 9.81-9.45.45.468-8.995 8.666H21v.65H3.806l8.761 8.441-.45.468L3 12.451z"/></symbol><symbol viewBox="0 0 24 24" id="arrow-right" xmlns="http://www.w3.org/2000/svg"><path fill-rule="evenodd" clip-rule="evenodd" d="M21 11.549l.009-.008.45.468-9.81 9.45-.45-.468 8.995-8.666H3v-.65h17.194l-8.761-8.441.45-.468L21 11.549z"/></symbol><symbol viewBox="0 0 24 24" id="marker" xmlns="http://www.w3.org/2000/svg"><path d="M12 0C7.6 0 3 3.4 3 9c0 5.3 8 13.4 8.3 13.7.2.2.4.3.7.3.3 0 .5-.1.7-.3C13 22.4 21 14.3 21 9c0-5.6-4.6-9-9-9zm0 12c-1.7 0-3-1.3-3-3s1.3-3 3-3 3 1.3 3 3-1.3 3-3 3z"/></symbol></svg>