<?xml version="1.0" encoding="utf-8"?><svg xmlns="http://www.w3.org/2000/svg" xmlns:xlink="http://www.w3.org/1999/xlink"><symbol viewBox="0 0 24 24" id="arrow-down-line" xmlns="http://www.w3.org/2000/svg"><path fill="none" d="M0 0h24v24H0z"/><path d="M12 13.172l4.95-4.95 1.414 1.414L12 16 5.636 9.636 7.05 8.222z"/></symbol><symbol viewBox="0 0 24 24" id="arrow-left" xmlns="http://www.w3.org/2000/svg"><path fill-rule="evenodd" clip-rule="evenodd" d="M3 12.451l-.009.008-.45-.468 9.81-9.45.45.468-8.995 8.666H21v.65H3.806l8.761 8.441-.45.468L3 12.451z"/></symbol><symbol viewBox="0 0 24 24" id="arrow-right" xmlns="http://www.w3.org/2000/svg"><path fill-rule="evenodd" clip-rule="evenodd" d="M21 11.549l.009-.008.45.468-9.81 9.45-.45-.468 8.995-8.666H3v-.65h17.194l-8.761-8.441.45-.468L21 11.549z"/></symbol><symbol fill="none" viewBox="0 0 25 24" id="arrow-up-circle" xmlns="http://www.w3.org/2000/svg"><path d="M12.887 22c5.523 0 10-4.477 10-10s-4.477-10-10-10-10 4.477-10 10 4.477 10 10 10z" stroke="currentColor" stroke-width="2" stroke-linecap="round" stroke-linejoin="round"/><path d="M16.887 12l-4-4-4 4M12.887 16V8" stroke="currentColor" stroke-width="2" stroke-linecap="round" stroke-linejoin="round"/></symbol><symbol fill="none" viewBox="0 0 19 19" id="chevron-down" xmlns="http://www.w3.org/2000/svg"><path d="M4.75 7.125l4.75 4.75 4.75-4.75" stroke="currentColor" stroke-width="2" stroke-linecap="round" stroke-linejoin="round"/></symbol><symbol fill="none" viewBox="0 0 19 19" id="close" xmlns="http://www.w3.org/2000/svg"><path fill-rule="evenodd" clip-rule="evenodd" d="M.293 18.678a1 1 0 001.414 0l7.778-7.779 7.779 7.779a1 1 0 001.414-1.415l-7.779-7.778 7.779-7.778A1 1 0 0017.263.293L9.486 8.07 1.707.293A1 1 0 00.293 1.707L8.07 9.485.293 17.264a1 1 0 000 1.414z" fill="#FFF9ED"/></symbol><symbol fill="none" viewBox="0 0 25 24" id="file" xmlns="http://www.w3.org/2000/svg"><path d="M14.25 2h-8a2 2 0 00-2 2v16a2 2 0 002 2h12a2 2 0 002-2V8l-6-6z" stroke="currentColor" stroke-width="2" stroke-linecap="round" stroke-linejoin="round"/><path d="M14.25 2v6h6M16.25 13h-8M16.25 17h-8M10.25 9h-2" stroke="currentColor" stroke-width="2" stroke-linecap="round" stroke-linejoin="round"/></symbol><symbol fill="none" viewBox="0 0 24 24" id="home" xmlns="http://www.w3.org/2000/svg"><path d="M3 9l9-7 9 7v11a2 2 0 01-2 2H5a2 2 0 01-2-2V9z" stroke="currentColor" stroke-width="2" stroke-linecap="round" stroke-linejoin="round"/><path d="M9 22V12h6v10" stroke="currentColor" stroke-width="2" stroke-linecap="round" stroke-linejoin="round"/></symbol><symbol fill="none" viewBox="0 0 25 24" id="image" xmlns="http://www.w3.org/2000/svg"><path d="M19.25 3h-14a2 2 0 00-2 2v14a2 2 0 002 2h14a2 2 0 002-2V5a2 2 0 00-2-2z" stroke="currentColor" stroke-width="2" stroke-linecap="round" stroke-linejoin="round"/><path d="M8.75 10a1.5 1.5 0 100-3 1.5 1.5 0 000 3zM21.25 15l-5-5-11 11" stroke="currentColor" stroke-width="2" stroke-linecap="round" stroke-linejoin="round"/></symbol><symbol viewBox="0 0 26 25" id="land" xmlns="http://www.w3.org/2000/svg"><g clip-path="url(#jclip0_916_5860)"><path d="M12.353 6.296c.164-.52.247-1.063.247-1.609C12.6 2.103 10.848 0 8.694 0S4.788 2.102 4.788 4.688c0 .545.083 1.088.247 1.608a6.602 6.602 0 00-1.81 4.641 6.206 6.206 0 003.906 5.987v4.951h1.563V11.719a.781.781 0 111.562 0v5.205a6.207 6.207 0 003.907-5.986 6.602 6.602 0 00-1.81-4.642z"/><path d="M20.166 6.296c.163-.52.247-1.063.247-1.609C20.413 2.103 18.66 0 16.506 0a3.689 3.689 0 00-3.009 1.702 6.992 6.992 0 01.562 4.178 8.234 8.234 0 011.666 5.058 8.252 8.252 0 01-1.948 5.402 5.02 5.02 0 001.948.776v4.759h1.563v-4.759c2.646-.436 4.687-3.036 4.687-6.178a6.602 6.602 0 00-1.81-4.642z"/><path d="M24.807 16.697a19.874 19.874 0 00-2.4-1.64 7.862 7.862 0 01-.921 1.274c.714.405 1.399.858 2.052 1.356v5.75H1.663v-5.75a18.1 18.1 0 012.043-1.35 7.64 7.64 0 01-.93-1.267 19.765 19.765 0 00-2.383 1.627.78.78 0 00-.293.61v6.912A.781.781 0 00.881 25H24.32a.781.781 0 00.781-.78v-6.913a.782.782 0 00-.293-.61z"/></g><defs><clipPath id="jclip0_916_5860"><path fill="#fff" transform="translate(.1)" d="M0 0h25v25H0z"/></clipPath></defs></symbol><symbol viewBox="0 0 24 24" id="marker" xmlns="http://www.w3.org/2000/svg"><path d="M12 0C7.6 0 3 3.4 3 9c0 5.3 8 13.4 8.3 13.7.2.2.4.3.7.3.3 0 .5-.1.7-.3C13 22.4 21 14.3 21 9c0-5.6-4.6-9-9-9zm0 12c-1.7 0-3-1.3-3-3s1.3-3 3-3 3 1.3 3 3-1.3 3-3 3z"/></symbol><symbol fill="none" viewBox="0 0 30 30" id="menu" xmlns="http://www.w3.org/2000/svg"><path d="M3 7a1 1 0 100 2h24a1 1 0 100-2H3zm0 7a1 1 0 100 2h24a1 1 0 100-2H3zm0 7a1 1 0 100 2h24a1 1 0 100-2H3z" fill="#002E0F"/></symbol><symbol fill="none" viewBox="0 0 32 32" id="sort-down" xmlns="http://www.w3.org/2000/svg"><path fill-rule="evenodd" clip-rule="evenodd" d="M20.5 24.793V6h1v18.793l2.146-2.147.708.708L21 26.707l-3.354-3.353.708-.708 2.146 2.147z" fill="#363844"/><path d="M7.37 14v-.398l2.776-8.004h1.39l2.759 8.004V14h-1.236l-.78-2.35H9.197L8.441 14H7.37zm3.35-7.02l-1.212 3.71h2.449l-1.213-3.71h-.023zM7.322 27v-1.043l4.407-6.34v-.035H7.65v-.984h5.455v1.072l-4.388 6.334v.035h4.342V27H7.322z" fill="#363844"/></symbol><symbol fill="none" viewBox="0 0 32 32" id="sort-up" xmlns="http://www.w3.org/2000/svg"><path fill-rule="evenodd" clip-rule="evenodd" d="M21.5 7.914v18.793h-1V7.914l-2.146 2.147-.708-.708L21 6l3.354 3.353-.708.708L21.5 7.914z" fill="#363844"/><path d="M7.37 14v-.398l2.776-8.004h1.39l2.759 8.004V14h-1.236l-.78-2.35H9.197L8.441 14H7.37zm3.35-7.02l-1.212 3.71h2.449l-1.213-3.71h-.023zM7.322 27v-1.043l4.407-6.34v-.035H7.65v-.984h5.455v1.072l-4.388 6.334v.035h4.342V27H7.322z" fill="#363844"/></symbol><symbol fill="none" viewBox="0 0 24 24" id="target" xmlns="http://www.w3.org/2000/svg"><path d="M12 22c5.523 0 10-4.477 10-10S17.523 2 12 2 2 6.477 2 12s4.477 10 10 10z" stroke="currentColor" stroke-width="2" stroke-linecap="round" stroke-linejoin="round"/><path d="M12 18a6 6 0 100-12 6 6 0 000 12z" stroke="currentColor" stroke-width="2" stroke-linecap="round" stroke-linejoin="round"/><path d="M12 14a2 2 0 100-4 2 2 0 000 4z" stroke="currentColor" stroke-width="2" stroke-linecap="round" stroke-linejoin="round"/></symbol><symbol viewBox="0 0 26 25" id="world" xmlns="http://www.w3.org/2000/svg"><g clip-path="url(#pclip0_916_5867)"><path d="M7.63 9.746l-.203-1.55.775-.102a35.31 35.31 0 012-.196l.782-.053.108 1.558-.782.054c-.69.048-1.328.11-1.905.186l-.774.103zM17.57 9.746l-.774-.103a29.293 29.293 0 00-1.906-.186l-.781-.054.108-1.558.78.053c.734.051 1.388.115 2.002.196l.775.102-.204 1.55zM21.62 9.174a7.218 7.218 0 012.699 1.591c.607.625 0 .953.781 1.735"/><path d="M12.6 0a12.5 12.5 0 1012.5 12.5A12.515 12.515 0 0012.6 0zm0 1.563a10.946 10.946 0 0110.618 8.359 10.002 10.002 0 00-1.598-.75l-.732-.273-.547 1.464.732.273c1.817.682 2.465 1.41 2.465 1.864 0 1.274-4.261 3.125-10.938 3.125-6.676 0-10.937-1.85-10.937-3.125 0-.454.647-1.182 2.465-1.863l.732-.273-.547-1.463-.732.273a9.974 9.974 0 00-1.599.752A10.947 10.947 0 0112.6 1.562z"/></g><defs><clipPath id="pclip0_916_5867"><path transform="translate(.1)" d="M0 0h25v25H0z"/></clipPath></defs></symbol></svg>