<svg width="397" height="519" viewBox="0 0 397 519" fill="none" xmlns="http://www.w3.org/2000/svg">
<g clip-path="url(#clip0_1_42)">
<g clip-path="url(#clip1_1_42)">
<path d="M-124.805 58.3479C-117.516 45.2621 -110.093 32.1762 -102.804 19.0904C-77.0251 -27.452 -51.3806 -73.9945 -25.7362 -120.672C-23.0368 -125.528 -19.9325 -127.822 -14.1287 -127.552C-3.87088 -127.147 6.52182 -127.282 16.9145 -127.552C21.2336 -127.687 23.933 -126.203 26.0925 -122.291C58.3505 -63.4718 90.743 -4.65298 123.136 54.1658C124.081 55.9196 124.756 57.8082 126.106 60.6413C123.001 61.1809 120.572 61.8554 118.143 61.8554C108.02 61.9903 97.897 61.5856 87.774 61.9903C82.375 62.2601 79.136 60.3715 76.572 55.5149C54.9763 16.3923 33.381 -22.7303 11.7856 -61.853C8.41141 -67.9237 5.03711 -73.7246 0.853012 -81.0095C-1.44149 -77.7718 -3.19608 -75.8831 -4.41078 -73.5897C-27.7608 -30.8247 -51.2457 11.8055 -74.4606 54.7054C-77.43 60.2365 -80.9392 62.395 -87.1479 62.1252C-99.7001 61.4507 -112.252 61.4507 -124.805 61.046C-124.805 60.1017 -124.805 59.1573 -124.805 58.3479Z" fill="white"/>
<path d="M-124.805 100.034C-111.982 100.169 -99.1603 100.574 -86.473 100.169C-80.6693 100.034 -77.5649 102.058 -74.8655 107.049C-51.5156 150.084 -27.8957 192.849 -4.27589 235.749C-3.06109 237.908 -1.71138 239.796 0.313118 243.034C2.87762 239.122 5.03711 236.424 6.65681 233.321C27.8472 194.738 48.9026 156.155 69.958 117.437C79.406 100.034 79.271 100.034 98.977 100.034C107.21 100.034 115.578 100.034 125.161 100.034C124.081 103.542 123.811 106.105 122.597 108.263C90.339 166.947 58.2155 225.496 25.6876 284.045C24.3379 286.474 20.1538 288.632 17.3194 288.767C6.38681 289.307 -4.68078 288.767 -15.7484 289.037C-20.4723 289.172 -23.1718 287.283 -25.3313 283.236C-44.2272 248.565 -63.393 214.029 -82.4239 179.359C-95.5161 155.615 -108.473 131.737 -121.565 107.859C-122.375 106.375 -123.59 105.161 -124.67 103.812C-124.805 102.732 -124.805 101.383 -124.805 100.034Z" fill="white"/>
<path d="M-124.805 518.242C-114.412 499.894 -103.749 481.682 -93.6265 463.335C-71.0864 422.459 -48.6812 381.447 -26.546 340.436C-23.7116 335.175 -20.6073 332.881 -14.5336 333.151C-4.00588 333.556 6.65681 333.421 17.1845 333.151C21.9084 333.016 24.4729 334.905 26.7674 338.952C58.3505 396.692 89.934 454.296 121.517 512.036C122.732 514.329 123.676 516.758 125.296 520.265C122.327 520.67 120.167 521.209 118.143 521.209C107.345 521.344 96.547 521.075 85.75 521.344C80.756 521.479 78.191 519.321 75.762 515.139C53.3566 473.318 30.4116 431.902 7.60152 390.351C5.71202 386.844 3.55241 383.606 0.853012 379.019C-1.57649 382.392 -3.46599 384.55 -4.68079 386.978C-27.8957 429.339 -51.1107 471.564 -74.0557 514.059C-76.7551 519.051 -79.8595 521.479 -85.6632 521.209C-98.7553 520.94 -111.712 520.94 -124.805 520.94C-124.805 519.995 -124.805 519.051 -124.805 518.242Z" fill="white"/>
<path d="M73.333 -125.258C74.818 -126.202 75.493 -127.146 76.302 -127.146C89.799 -127.281 103.296 -127.686 116.794 -127.011C119.088 -126.876 121.922 -122.964 123.407 -120.266C146.892 -77.7709 170.107 -35.2756 193.457 7.21965C194.807 9.64794 196.426 12.0762 198.856 15.7187C201.42 11.6715 203.31 8.83851 205.064 5.87057C228.144 -36.085 251.224 -77.9058 274.034 -119.861C277.139 -125.527 280.513 -127.956 287.127 -127.686C296.71 -127.146 306.427 -127.551 316.145 -127.551C324.109 -127.551 324.918 -126.202 321.004 -119.052C303.053 -86.135 284.967 -53.353 266.881 -20.436C253.114 4.79133 239.212 29.8838 225.445 55.1111C222.881 59.8328 220.046 62.1262 214.377 61.8564C204.255 61.3167 194.132 61.3167 184.009 61.8564C178.34 62.1262 175.236 60.2375 172.536 55.1111C142.438 -0.0652542 112.205 -55.1067 81.836 -110.148C79.002 -115.005 76.167 -119.996 73.333 -125.258Z" fill="white"/>
<path d="M272.011 60.9119C273.63 57.5393 274.575 55.111 275.79 52.8176C307.643 -5.1918 339.631 -63.2012 371.484 -121.346C373.914 -125.797 376.748 -127.821 382.012 -127.686C392.54 -127.281 403.202 -127.956 413.73 -127.281C416.834 -127.146 421.153 -124.718 422.638 -122.155C455.166 -63.471 487.424 -4.65216 519.817 54.3016C520.762 56.0553 521.437 57.944 522.651 60.5072C519.952 61.0469 517.927 61.7214 515.768 61.7214C504.7 61.8563 493.768 62.1261 482.7 61.5865C479.596 61.4516 475.277 58.8884 473.792 56.1902C450.442 14.2346 427.497 -27.9909 404.417 -70.0814C402.527 -73.454 399.558 -76.1521 397.129 -79.1201C394.969 -76.1521 392.405 -73.3191 390.65 -70.0814C367.57 -28.2607 344.49 13.695 321.68 55.6506C319.25 60.2374 316.146 61.9912 311.017 61.8563C300.625 61.4516 290.367 61.8563 279.974 61.7214C277.68 61.8563 275.25 61.3167 272.011 60.9119Z" fill="white"/>
<path d="M272.278 100.305C287.8 100.305 301.297 100.035 314.659 100.575C316.954 100.709 320.058 103.677 321.273 106.106C343.813 146.982 366.218 187.993 388.623 228.87C391.053 233.322 393.752 237.639 397.126 243.44C399.691 239.527 401.715 236.829 403.335 234.131C425.875 192.985 448.55 151.974 470.82 110.692C474.734 103.273 479.188 99.6302 487.961 100.44C497.139 101.249 506.318 100.575 515.63 100.575C517.79 100.575 519.95 100.844 523.189 101.114C521.569 104.487 520.624 106.915 519.41 109.209C488.096 166.274 456.648 223.204 425.605 280.404C421.826 287.284 417.507 290.117 409.813 289.577C401.04 288.903 392.267 289.038 383.494 289.712C377.286 290.252 373.911 287.958 371.077 282.832C350.291 244.789 329.506 206.88 308.585 168.837C297.923 149.41 287.26 129.849 276.597 110.288C275.113 107.455 274.168 104.622 272.278 100.305Z" fill="white"/>
<path d="M72.659 289.172C75.629 283.506 77.653 279.729 79.678 276.086C110.316 220.235 141.089 164.384 171.593 108.399C174.697 102.598 178.071 99.7646 185.09 100.304C194.943 101.114 204.93 100.709 214.783 100.304C219.777 100.169 222.477 102.058 224.906 106.24C256.759 164.519 288.747 222.798 320.735 280.943C321.815 282.966 322.625 285.26 323.84 288.363C320.33 288.632 318.036 289.037 315.606 289.037C305.888 289.172 296.171 288.497 286.588 289.307C279.974 289.981 276.87 287.418 273.9 282.157C250.281 238.717 226.526 195.548 202.771 152.243C201.961 150.624 200.071 148.465 198.722 148.6C197.372 148.6 195.617 150.894 194.808 152.513C170.918 195.952 147.028 239.392 123.408 282.966C120.844 287.553 118.009 289.307 112.88 289.172C100.058 289.037 87.371 289.172 72.659 289.172Z" fill="white"/>
<path d="M324.244 333.151C322.489 337.198 321.679 339.492 320.599 341.515C288.746 399.525 256.758 457.534 225.04 515.544C222.611 519.995 219.911 522.019 214.647 521.884C204.12 521.479 193.457 521.614 182.929 521.884C178.34 522.019 175.506 520.535 173.211 516.488C141.088 457.804 108.83 399.255 76.572 340.706C75.493 338.817 74.683 336.794 73.333 333.826C76.572 333.556 79.002 333.151 81.296 333.151C91.419 333.016 101.542 333.691 111.665 332.881C118.008 332.342 120.843 334.77 123.677 339.897C145.407 379.963 167.408 419.761 189.273 459.693C191.972 464.684 194.942 469.541 198.451 475.746C200.88 472.104 202.365 470.08 203.58 467.787C226.93 425.292 250.415 382.931 273.495 340.301C276.464 334.77 279.838 332.612 286.047 332.881C298.329 333.421 310.342 333.151 324.244 333.151Z" fill="white"/>
<path d="M397.668 379.018C395.104 382.796 393.214 385.089 391.73 387.787C368.38 430.282 345.165 472.778 321.815 515.273C320.6 517.566 317.901 520.669 315.876 520.669C301.839 521.209 287.667 520.939 272.146 520.939C273.63 517.566 274.575 515.138 275.79 512.845C307.643 454.835 339.631 396.961 371.484 338.816C373.644 334.769 376.208 332.881 380.932 333.016C392 333.285 402.932 333.15 414 333.016C418.589 333.016 421.423 334.5 423.583 338.682C455.571 397.096 487.694 455.51 519.682 513.924C520.627 515.678 521.301 517.566 522.381 520.13C519.817 520.534 518.062 520.939 516.173 520.939C504.97 521.074 493.632 520.939 482.43 521.074C478.246 521.074 475.411 519.725 473.387 515.813C450.442 473.587 427.362 431.497 404.282 389.406C402.392 386.438 400.368 383.335 397.668 379.018Z" fill="white"/>
<path d="M32.3008 60.776C29.0615 61.4505 27.5768 61.9901 26.0922 61.9901C9.7607 61.9901 -6.7057 61.9901 -23.0372 61.9901C-26.4114 61.9901 -30.4606 61.4505 -28.1661 56.8637C-19.123 38.9213 -9.6751 21.1138 -0.362101 3.30622C0.312799 3.17131 0.987599 3.03641 1.7974 2.7666C11.6503 21.7883 21.6381 40.6751 32.3008 60.776Z" fill="white"/>
<path d="M398.747 2.3623C408.87 21.7887 418.588 40.5406 428.845 60.3717C425.741 61.0462 423.581 61.8557 421.287 61.8557C405.36 61.9906 389.434 61.8556 373.372 61.9905C368.918 61.9905 366.624 60.7764 369.188 56.0547C378.096 38.9217 387.004 21.7887 395.912 4.65567C396.182 4.11605 396.857 3.84627 398.747 2.3623Z" fill="white"/>
<path d="M428.98 101.113C418.452 121.349 408.734 140.371 397.936 161.281C387.004 140.506 377.151 121.484 366.488 101.113C387.949 101.113 407.519 101.113 428.98 101.113Z" fill="white"/>
<path d="M-30.46 100.844C-8.5947 100.844 10.976 100.844 32.4364 100.844C21.9087 121.08 11.9208 140.236 0.988199 161.281C-9.9444 140.371 -19.7973 121.214 -30.46 100.844Z" fill="white"/>
<path d="M230.573 288.632C209.113 288.632 189.272 288.632 167.812 288.632C178.204 268.666 188.192 249.509 199.125 228.599C209.922 249.104 219.91 268.261 230.573 288.632Z" fill="white"/>
<path d="M167.812 333.826C189.407 333.826 209.113 333.826 230.438 333.826C219.91 354.062 209.922 373.084 199.125 393.859C188.327 373.084 178.339 354.062 167.812 333.826Z" fill="white"/>
<path d="M428.982 520.535C407.792 520.535 388.221 520.535 366.896 520.535C377.153 500.569 386.871 481.817 396.454 463.065C397.129 462.93 397.804 462.795 398.614 462.66C408.466 481.547 418.319 500.299 428.982 520.535Z" fill="white"/>
<path d="M32.1668 520.534C10.9764 520.534 -8.5943 520.534 -30.0547 520.534C-19.527 500.434 -9.6741 481.547 0.9886 461.041C11.5163 481.277 21.3692 500.164 32.1668 520.534Z" fill="white"/>
</g>
</g>
<defs>
<clipPath id="clip0_1_42">
<rect width="397" height="519" fill="white"/>
</clipPath>
<clipPath id="clip1_1_42">
<rect width="1281" height="519" fill="white" transform="translate(-30)"/>
</clipPath>
</defs>
</svg>
