<svg width="1281" height="519" viewBox="0 0 1281 519" fill="none" xmlns="http://www.w3.org/2000/svg">
<path d="M-94.8047 58.3479C-87.5163 45.2621 -80.0929 32.1762 -72.8045 19.0904C-47.0251 -27.452 -21.3806 -73.9945 4.2638 -120.672C6.96321 -125.528 10.0675 -127.822 15.8713 -127.552C26.1291 -127.147 36.5218 -127.282 46.9145 -127.552C51.2336 -127.687 53.933 -126.203 56.0925 -122.291C88.3505 -63.4718 120.743 -4.653 153.136 54.1658C154.081 55.9196 154.756 57.8082 156.106 60.6413C153.001 61.1809 150.572 61.8554 148.143 61.8554C138.02 61.9903 127.897 61.5856 117.774 61.9903C112.375 62.2601 109.136 60.3715 106.572 55.5149C84.9763 16.3923 63.381 -22.7303 41.7856 -61.853C38.4114 -67.9237 35.0371 -73.7246 30.853 -81.0095C28.5585 -77.7718 26.8039 -75.8831 25.5892 -73.5897C2.23923 -30.8247 -21.2457 11.8055 -44.4606 54.7054C-47.43 60.2365 -50.9392 62.395 -57.1479 62.1252C-69.7001 61.4507 -82.2524 61.4507 -94.8047 61.046C-94.8047 60.1017 -94.8047 59.1573 -94.8047 58.3479Z" fill="white"/>
<path d="M-94.8047 100.034C-81.9825 100.169 -69.1603 100.574 -56.473 100.169C-50.6693 100.034 -47.5649 102.058 -44.8655 107.049C-21.5156 150.084 2.10426 192.849 25.7241 235.749C26.9389 237.908 28.2886 239.796 30.3131 243.034C32.8776 239.122 35.0371 236.424 36.6568 233.321C57.8472 194.738 78.9026 156.155 99.958 117.437C109.406 100.034 109.271 100.034 128.977 100.034C137.21 100.034 145.578 100.034 155.161 100.034C154.081 103.542 153.811 106.105 152.597 108.263C120.339 166.947 88.2155 225.496 55.6876 284.045C54.3379 286.474 50.1538 288.632 47.3194 288.767C36.3868 289.307 25.3192 288.767 14.2516 289.037C9.52765 289.172 6.82823 287.283 4.66869 283.236C-14.2272 248.565 -33.393 214.029 -52.4239 179.359C-65.5161 155.615 -78.4732 131.737 -91.5654 107.859C-92.3752 106.375 -93.59 105.161 -94.6697 103.812C-94.8047 102.732 -94.8047 101.383 -94.8047 100.034Z" fill="white"/>
<path d="M-94.8047 518.242C-84.4119 499.894 -73.7493 481.682 -63.6265 463.335C-41.0864 422.459 -18.6812 381.447 3.45397 340.436C6.28835 335.175 9.39267 332.881 15.4664 333.151C25.9941 333.556 36.6568 333.421 47.1845 333.151C51.9084 333.016 54.4729 334.905 56.7674 338.952C88.3505 396.692 119.934 454.296 151.517 512.036C152.732 514.329 153.676 516.758 155.296 520.265C152.327 520.67 150.167 521.209 148.143 521.209C137.345 521.344 126.547 521.075 115.75 521.344C110.756 521.479 108.191 519.321 105.762 515.139C83.3566 473.318 60.4116 431.902 37.6015 390.351C35.712 386.844 33.5524 383.606 30.853 379.019C28.4235 382.392 26.534 384.55 25.3192 386.978C2.10426 429.339 -21.1107 471.564 -44.0557 514.059C-46.7551 519.051 -49.8595 521.479 -55.6632 521.209C-68.7553 520.94 -81.7125 520.94 -94.8047 520.94C-94.8047 519.995 -94.8047 519.051 -94.8047 518.242Z" fill="white"/>
<path d="M1022.62 15.9877C1025.32 11.8057 1027.07 9.24246 1028.56 6.54434C1051.91 -35.9509 1075.26 -78.4462 1098.47 -120.941C1101.03 -125.663 1103.87 -127.822 1109.4 -127.552C1119.66 -127.012 1130.05 -127.417 1140.45 -127.417C1142.74 -127.417 1145.17 -126.877 1148.41 -126.473C1146.92 -123.37 1146.12 -121.211 1144.9 -119.053C1112.91 -60.7735 1080.92 -2.62923 1049.07 55.6499C1046.64 60.1018 1043.67 62.1254 1038.41 61.8556C1027.88 61.4509 1017.22 61.5858 1006.69 61.8556C1002.1 61.9905 999.267 60.3716 996.972 56.3245C964.714 -2.49433 932.321 -61.3131 900.063 -120.132C899.119 -121.886 898.444 -123.774 897.499 -125.933C899.119 -126.607 900.198 -127.417 901.413 -127.417C913.83 -127.552 926.113 -127.417 938.53 -127.552C943.929 -127.552 945.684 -123.64 947.708 -119.862C970.383 -78.5811 992.923 -37.1651 1015.6 4.11603C1017.49 7.75847 1019.65 10.9962 1022.62 15.9877Z" fill="white"/>
<path d="M500.281 -127.012C503.521 -127.282 505.68 -127.552 507.705 -127.552C518.232 -127.552 528.895 -127.282 539.423 -127.687C544.687 -127.822 547.521 -125.933 550.085 -121.346C573.57 -78.1763 597.325 -35.1415 620.945 8.02831C622.16 10.1868 623.509 12.0755 625.399 15.1783C627.424 12.6151 629.043 10.9962 630.123 8.97266C653.878 -34.332 677.768 -77.5018 701.253 -120.941C703.817 -125.663 706.786 -127.822 712.32 -127.687C722.848 -127.282 733.511 -127.552 744.038 -127.417C746.198 -127.417 748.222 -127.012 751.597 -126.607C749.707 -122.83 748.357 -120.132 746.873 -117.434C715.29 -59.9641 683.706 -2.62923 652.258 54.9754C649.559 59.832 646.455 62.2603 640.651 61.9905C630.123 61.5858 619.46 62.1254 608.933 61.7207C606.098 61.5858 602.184 59.6971 600.834 57.4037C567.767 -2.22453 534.969 -62.1226 502.171 -121.886C501.766 -122.965 501.361 -124.314 500.281 -127.012Z" fill="white"/>
<path d="M103.333 -125.258C104.818 -126.202 105.493 -127.146 106.302 -127.146C119.799 -127.281 133.296 -127.686 146.794 -127.011C149.088 -126.876 151.922 -122.964 153.407 -120.266C176.892 -77.7709 200.107 -35.2756 223.457 7.21964C224.807 9.64793 226.426 12.0762 228.856 15.7187C231.42 11.6715 233.31 8.8385 235.064 5.87057C258.144 -36.085 281.224 -77.9058 304.034 -119.861C307.139 -125.527 310.513 -127.956 317.127 -127.686C326.71 -127.146 336.427 -127.551 346.145 -127.551C354.109 -127.551 354.918 -126.202 351.004 -119.052C333.053 -86.135 314.967 -53.353 296.881 -20.436C283.114 4.79132 269.212 29.8838 255.445 55.1111C252.881 59.8328 250.046 62.1262 244.377 61.8564C234.255 61.3167 224.132 61.3167 214.009 61.8564C208.34 62.1262 205.236 60.2375 202.536 55.1111C172.438 -0.0652695 142.205 -55.1067 111.836 -110.148C109.002 -115.005 106.167 -119.996 103.333 -125.258Z" fill="white"/>
<path d="M302.011 60.9119C303.63 57.5393 304.575 55.111 305.79 52.8176C337.643 -5.1918 369.631 -63.2012 401.484 -121.346C403.914 -125.797 406.748 -127.821 412.012 -127.686C422.54 -127.281 433.202 -127.956 443.73 -127.281C446.834 -127.146 451.153 -124.718 452.638 -122.155C485.166 -63.471 517.424 -4.65217 549.817 54.3016C550.762 56.0553 551.437 57.944 552.651 60.5072C549.952 61.0469 547.927 61.7214 545.768 61.7214C534.7 61.8563 523.768 62.1261 512.7 61.5865C509.596 61.4516 505.277 58.8884 503.792 56.1902C480.442 14.2346 457.497 -27.9909 434.417 -70.0814C432.527 -73.454 429.558 -76.1521 427.129 -79.1201C424.969 -76.1521 422.405 -73.3191 420.65 -70.0814C397.57 -28.2607 374.49 13.695 351.68 55.6506C349.25 60.2374 346.146 61.9912 341.017 61.8563C330.625 61.4516 320.367 61.8563 309.974 61.7214C307.68 61.8563 305.25 61.3167 302.011 60.9119Z" fill="white"/>
<path d="M1346.68 60.7774C1343.44 61.317 1341.15 61.8567 1338.85 61.8567C1328.46 61.9916 1318.2 61.5868 1307.81 61.9915C1302.28 62.1264 1299.31 60.1029 1296.74 55.2463C1274.34 13.9652 1251.8 -27.181 1229.26 -68.3272C1227.23 -71.9696 1224.94 -75.4772 1221.83 -80.7385C1219.27 -77.2309 1217.11 -74.8026 1215.63 -72.1045C1192.55 -30.2838 1169.47 11.6718 1146.79 53.7623C1143.55 59.6982 1139.91 62.2614 1133.16 61.9915C1123.57 61.4519 1113.86 61.8567 1104.14 61.8567C1096.31 61.8567 1095.64 60.6425 1099.42 53.7623C1121.96 12.6161 1144.5 -28.53 1167.04 -69.6762C1176.48 -86.8092 1185.93 -103.807 1195.11 -121.075C1197.54 -125.527 1200.37 -127.686 1205.64 -127.551C1216.16 -127.281 1226.83 -127.821 1237.36 -127.281C1240.59 -127.146 1245.05 -124.987 1246.53 -122.289C1279.6 -62.7961 1312.26 -3.16779 1345.06 56.4604C1345.47 57.2699 1345.74 58.3491 1346.68 60.7774Z" fill="white"/>
<path d="M500.012 332.612C509.865 332.612 518.368 332.612 527.006 332.612C529.705 332.612 532.54 333.557 534.969 332.882C544.417 330.454 548.601 335.445 552.65 343C575.325 384.821 598.27 426.507 621.215 468.192C622.295 470.216 624.185 471.835 625.804 473.589C627.424 471.835 629.449 470.351 630.528 468.327C654.013 425.697 677.498 382.932 700.713 340.167C703.817 334.501 707.192 331.803 713.805 332.208C723.388 332.747 733.106 332.343 742.689 332.343C750.517 332.343 751.597 334.096 747.818 341.111C722.038 387.924 696.394 434.736 670.615 481.548C664.271 493.15 658.062 504.887 651.179 516.219C649.559 518.917 645.375 521.345 642.271 521.48C631.338 522.155 620.271 522.155 609.203 521.48C606.099 521.345 601.915 518.782 600.43 516.219C567.902 457.535 535.509 398.716 503.251 339.897C502.306 338.278 501.631 336.39 500.012 332.612Z" fill="white"/>
<path d="M824.482 -81.4126C821.648 -76.8258 819.759 -73.9928 818.139 -70.8899C795.059 -28.9343 771.979 12.8864 749.169 54.9769C746.334 60.3731 742.825 62.2618 736.887 61.992C727.034 61.5872 717.046 61.8571 707.193 61.8571C699.5 61.8571 698.69 60.508 702.334 53.7628C715.831 28.9401 729.463 4.11752 743.095 -20.7051C761.586 -54.2966 780.212 -87.888 798.568 -121.614C801.133 -126.201 804.102 -127.955 809.231 -127.685C819.354 -127.28 829.476 -127.28 839.599 -127.685C845.133 -127.955 848.102 -125.796 850.667 -121.075C879.955 -67.5173 909.244 -13.9598 938.668 39.5977C942.312 46.2081 946.091 52.8184 950.275 60.508C946.901 61.0477 944.741 61.7222 942.447 61.7222C931.649 61.8571 920.852 61.5873 910.054 61.8571C905.06 61.992 902.36 59.8335 900.066 55.6514C877.121 13.426 854.041 -28.6645 830.961 -70.8899C829.341 -73.8579 827.317 -76.6909 824.482 -81.4126Z" fill="white"/>
<path d="M302.278 100.305C317.8 100.305 331.297 100.035 344.659 100.575C346.954 100.709 350.058 103.677 351.273 106.106C373.813 146.982 396.218 187.993 418.623 228.87C421.053 233.322 423.752 237.639 427.126 243.44C429.691 239.527 431.715 236.829 433.335 234.131C455.875 192.985 478.55 151.974 500.82 110.692C504.734 103.273 509.188 99.6302 517.961 100.44C527.139 101.249 536.318 100.575 545.63 100.575C547.79 100.575 549.95 100.844 553.189 101.114C551.569 104.487 550.624 106.915 549.41 109.209C518.096 166.274 486.648 223.204 455.605 280.404C451.826 287.284 447.507 290.117 439.813 289.577C431.04 288.903 422.267 289.038 413.494 289.712C407.286 290.252 403.911 287.958 401.077 282.832C380.291 244.789 359.506 206.88 338.585 168.837C327.923 149.41 317.26 129.849 306.597 110.288C305.113 107.455 304.168 104.622 302.278 100.305Z" fill="white"/>
<path d="M897.231 333.15C904.925 333.15 911.538 333.016 918.152 333.15C926.655 333.285 936.643 330.992 943.256 334.769C949.465 338.412 952.164 348.26 956.079 355.545C976.459 392.779 996.84 430.013 1017.22 467.112C1018.57 469.54 1020.19 471.968 1022.35 475.476C1024.64 472.238 1026.53 470.08 1027.88 467.651C1051.37 425.021 1074.85 382.256 1098.07 339.491C1100.63 334.634 1103.6 332.746 1109 332.881C1119.39 333.285 1129.65 333.016 1140.04 333.016C1142.47 333.016 1144.77 333.285 1148.28 333.555C1146.79 336.658 1145.98 338.816 1144.9 340.975C1113.05 398.984 1081.06 456.994 1049.34 515.138C1046.64 520.13 1043.54 522.153 1037.87 521.883C1027.61 521.344 1017.22 521.614 1006.83 521.883C1002.24 522.018 999.269 520.534 997.11 516.487C964.987 457.803 932.729 399.254 900.471 340.57C899.391 338.682 898.716 336.658 897.231 333.15Z" fill="white"/>
<path d="M699.498 100.439C714.48 100.439 728.382 100.169 742.149 100.709C744.578 100.843 747.413 104.486 748.897 107.184C772.382 149.544 795.597 192.175 818.947 234.67C820.297 237.098 821.917 239.526 824.211 243.304C826.91 239.257 828.935 236.558 830.555 233.456C853.635 191.365 876.85 149.275 899.66 107.049C902.629 101.653 905.868 99.7643 911.807 100.169C921.93 100.709 932.053 100.304 942.175 100.439C944.335 100.439 946.359 100.709 949.869 100.978C948.114 104.891 946.899 107.589 945.415 110.287C913.697 167.892 881.978 225.496 850.395 283.101C847.966 287.418 845.266 289.307 840.272 289.172C829.205 288.902 818.272 289.037 807.205 289.172C803.156 289.172 800.591 287.823 798.567 284.18C766.444 225.361 734.051 166.542 701.928 107.589C701.118 105.835 700.713 103.676 699.498 100.439Z" fill="white"/>
<path d="M102.659 289.172C105.629 283.506 107.653 279.729 109.678 276.086C140.316 220.235 171.089 164.384 201.593 108.399C204.697 102.598 208.071 99.7646 215.09 100.304C224.943 101.114 234.93 100.709 244.783 100.304C249.777 100.169 252.477 102.058 254.906 106.24C286.759 164.519 318.747 222.798 350.735 280.943C351.815 282.966 352.625 285.26 353.84 288.363C350.33 288.632 348.036 289.037 345.606 289.037C335.888 289.172 326.171 288.497 316.588 289.307C309.974 289.981 306.87 287.418 303.9 282.157C280.281 238.717 256.526 195.548 232.771 152.243C231.961 150.624 230.071 148.465 228.722 148.6C227.372 148.6 225.617 150.894 224.808 152.513C200.918 195.952 177.028 239.392 153.408 282.966C150.844 287.553 148.009 289.307 142.88 289.172C130.058 289.037 117.371 289.172 102.659 289.172Z" fill="white"/>
<path d="M499.877 288.496C508.245 273.252 515.669 259.492 523.227 245.866C548.736 199.459 574.381 153.051 599.62 106.644C602.05 102.192 604.749 100.168 610.013 100.303C620.946 100.708 632.013 100.168 643.081 100.708C645.78 100.843 649.559 102.866 650.774 105.16C683.572 164.248 715.965 223.472 748.493 282.695C749.303 284.179 749.843 285.933 750.922 288.362C748.223 288.766 746.063 289.171 743.904 289.306C733.106 289.441 722.309 289.171 711.511 289.441C706.652 289.576 703.818 287.822 701.388 283.37C677.903 240.2 654.283 197.165 630.529 154.13C629.449 152.107 627.559 150.488 626.074 148.599C624.32 150.488 622.16 151.972 620.946 154.13C597.326 196.896 573.706 239.796 550.356 282.83C547.522 287.957 544.417 289.711 538.748 289.576C528.626 289.171 518.503 289.441 508.38 289.441C506.221 289.171 503.791 288.766 499.877 288.496Z" fill="white"/>
<path d="M1096.45 100.439C1111.7 100.439 1125.47 100.169 1139.1 100.709C1141.26 100.844 1143.96 103.677 1145.17 105.835C1161.77 135.919 1178.24 166.003 1194.84 196.087C1202.13 209.443 1209.42 222.798 1216.84 236.154C1217.92 238.178 1219.54 240.066 1221.57 242.899C1224 239.122 1225.89 236.424 1227.5 233.591C1250.31 191.905 1273.26 150.219 1295.8 108.263C1299.17 101.923 1303.22 99.6295 1310.11 100.034C1319.69 100.574 1329.41 100.304 1339.13 100.304C1341.29 100.304 1343.44 100.304 1346.95 100.304C1345.47 103.812 1344.79 105.97 1343.71 107.994C1311.46 166.543 1279.2 225.092 1247.08 283.776C1244.92 287.688 1242.22 289.037 1237.9 289.037C1226.83 288.902 1215.9 288.902 1204.83 289.037C1200.24 289.172 1197.54 287.418 1195.38 283.371C1163.26 224.687 1131 166.138 1098.88 107.589C1097.8 105.835 1097.53 103.677 1096.45 100.439Z" fill="white"/>
<path d="M1148.41 289.171C1137.88 289.171 1128.3 288.227 1119.12 289.441C1105.63 291.195 1099.01 285.799 1092.94 273.927C1072.02 233.725 1049.75 194.198 1027.88 154.401C1026.67 152.107 1025.05 149.949 1023.02 146.711C1020.73 149.949 1018.97 152.107 1017.63 154.536C994.14 197.166 970.655 239.931 947.441 282.696C944.741 287.822 941.772 289.711 935.833 289.306C925.71 288.632 915.587 289.171 905.465 289.036C903.035 289.036 900.741 288.767 897.231 288.632C898.716 285.394 899.796 282.966 901.011 280.672C932.864 222.663 964.852 164.653 996.57 106.509C998.999 101.922 1001.97 100.034 1007.23 100.303C1018.03 100.708 1028.83 100.034 1039.63 100.573C1042.59 100.708 1046.64 103.002 1047.99 105.43C1080.93 164.653 1113.45 224.147 1146.12 283.505C1146.79 284.854 1147.06 286.068 1148.41 289.171Z" fill="white"/>
<path d="M354.244 333.151C352.489 337.198 351.679 339.492 350.599 341.515C318.746 399.525 286.758 457.534 255.04 515.544C252.611 519.995 249.911 522.019 244.647 521.884C234.12 521.479 223.457 521.614 212.929 521.884C208.34 522.019 205.506 520.535 203.211 516.488C171.088 457.804 138.83 399.255 106.572 340.706C105.493 338.817 104.683 336.794 103.333 333.826C106.572 333.556 109.002 333.151 111.296 333.151C121.419 333.016 131.542 333.691 141.665 332.881C148.008 332.342 150.843 334.77 153.677 339.897C175.407 379.963 197.408 419.761 219.273 459.693C221.972 464.684 224.942 469.541 228.451 475.746C230.88 472.104 232.365 470.08 233.58 467.787C256.93 425.292 280.415 382.931 303.495 340.301C306.464 334.77 309.838 332.612 316.047 332.881C328.329 333.421 340.342 333.151 354.244 333.151Z" fill="white"/>
<path d="M427.668 379.018C425.104 382.796 423.214 385.089 421.73 387.787C398.38 430.282 375.165 472.778 351.815 515.273C350.6 517.566 347.901 520.669 345.876 520.669C331.839 521.209 317.667 520.939 302.146 520.939C303.63 517.566 304.575 515.138 305.79 512.845C337.643 454.835 369.631 396.961 401.484 338.816C403.644 334.769 406.208 332.881 410.932 333.016C422 333.285 432.932 333.15 444 333.016C448.589 333.016 451.423 334.5 453.583 338.682C485.571 397.096 517.694 455.51 549.682 513.924C550.627 515.678 551.301 517.566 552.381 520.13C549.817 520.534 548.062 520.939 546.173 520.939C534.97 521.074 523.632 520.939 512.43 521.074C508.246 521.074 505.411 519.725 503.387 515.813C480.442 473.587 457.362 431.497 434.282 389.406C432.392 386.438 430.368 383.335 427.668 379.018Z" fill="white"/>
<path d="M699.633 520.535C700.983 517.432 701.657 515.139 702.737 513.115C734.725 454.836 766.848 396.692 798.701 338.412C800.861 334.5 803.425 333.016 807.744 333.151C818.812 333.286 829.745 333.286 840.812 333.151C845.401 333.016 848.371 334.77 850.53 338.817C883.058 398.041 915.586 457.264 948.114 516.488C948.654 517.432 948.924 518.511 949.599 520.265C946.899 520.67 944.875 521.074 942.715 521.209C931.647 521.344 920.715 521.074 909.647 521.344C905.058 521.479 902.359 519.86 900.064 515.678C876.714 472.643 853.095 429.743 829.475 386.843C828.26 384.55 826.64 382.526 824.346 379.154C821.781 383.066 819.757 385.899 818.137 389.002C795.192 430.688 772.382 472.508 749.707 514.329C747.008 519.321 744.038 521.614 738.234 521.344C728.112 520.94 717.989 521.209 707.866 521.209C705.437 521.074 703.007 520.805 699.633 520.535Z" fill="white"/>
<path d="M1221.43 379.018C1218.73 383.065 1216.84 385.764 1215.22 388.597C1192.55 429.878 1169.74 471.159 1147.47 512.71C1143.96 519.185 1140.04 521.748 1132.75 521.344C1123.31 520.669 1113.86 521.209 1104.41 521.209C1102.12 521.209 1099.69 520.804 1096.31 520.534C1097.8 517.162 1098.61 514.733 1099.82 512.44C1130.86 455.915 1162.04 399.524 1192.82 342.998C1196.73 335.848 1200.91 332.341 1209.42 333.015C1219 333.825 1228.72 332.881 1238.44 333.42C1241.4 333.555 1245.59 335.714 1246.94 338.277C1279.87 397.635 1312.4 456.994 1344.93 516.487C1345.47 517.432 1345.6 518.511 1346.68 521.209C1341.96 521.209 1338.04 521.209 1334.13 521.209C1325.09 521.209 1316.18 520.939 1307.14 521.344C1301.87 521.479 1299.04 519.455 1296.61 514.868C1273.39 472.238 1250.04 429.743 1226.69 387.248C1225.48 384.954 1223.86 382.796 1221.43 379.018Z" fill="white"/>
<path d="M1190.39 60.6419C1201.18 40.1362 1211.04 21.2495 1221.7 1.01367C1230.07 17.0674 1237.9 31.6372 1245.45 46.3419C1253.55 61.991 1253.55 61.9909 1235.74 61.9909C1223.59 61.9909 1211.58 61.9909 1199.43 61.9909C1196.87 61.856 1194.44 61.1815 1190.39 60.6419Z" fill="white"/>
<path d="M62.3008 60.776C59.0615 61.4505 57.5768 61.9901 56.0922 61.9901C39.7607 61.9901 23.2943 61.9901 6.96283 61.9901C3.58856 61.9901 -0.460561 61.4505 1.83394 56.8637C10.877 38.9213 20.3249 21.1138 29.6379 3.30622C30.3128 3.17131 30.9876 3.03641 31.7974 2.7666C41.6503 21.7883 51.6381 40.6751 62.3008 60.776Z" fill="white"/>
<path d="M826.101 3.03823C835.819 21.7901 845.672 40.4071 856.47 61.3174C835.009 62.2618 815.304 61.8571 793.438 61.5873C804.101 40.9467 813.819 21.925 823.537 2.90332C824.482 3.03823 825.292 3.03823 826.101 3.03823Z" fill="white"/>
<path d="M428.747 2.3623C438.87 21.7887 448.588 40.5406 458.845 60.3717C455.741 61.0462 453.581 61.8557 451.287 61.8557C435.36 61.9906 419.434 61.8556 403.372 61.9905C398.918 61.9905 396.624 60.7764 399.188 56.0547C408.096 38.9217 417.004 21.7887 425.912 4.65567C426.182 4.11605 426.857 3.84627 428.747 2.3623Z" fill="white"/>
<path d="M626.345 393.723C615.547 373.083 605.694 354.196 594.896 333.555C616.492 331.801 636.198 332.476 657.793 333.15C646.995 353.791 637.142 372.813 626.345 393.723Z" fill="white"/>
<path d="M1220.76 159.257C1210.77 140.236 1200.78 121.214 1189.98 100.304C1196.6 100.304 1200.91 100.304 1205.37 100.304C1219 100.304 1232.77 100.439 1246.4 100.439C1250.04 100.439 1253.42 100.843 1250.85 105.565C1241.68 123.507 1232.23 141.18 1222.92 158.988C1222.24 159.123 1221.43 159.257 1220.76 159.257Z" fill="white"/>
<path d="M458.98 101.113C448.452 121.349 438.734 140.371 427.936 161.281C417.004 140.506 407.151 121.484 396.488 101.113C417.949 101.113 437.519 101.113 458.98 101.113Z" fill="white"/>
<path d="M-0.459961 100.844C21.4053 100.844 40.976 100.844 62.4364 100.844C51.9087 121.08 41.9208 140.236 30.9882 161.281C20.0556 140.371 10.2027 121.214 -0.459961 100.844Z" fill="white"/>
<path d="M824.886 161.011C818.407 148.735 813.008 138.212 807.474 127.824C803.695 120.674 799.916 113.524 796.137 106.374C794.652 103.406 793.707 100.438 798.701 100.438C816.922 100.438 835.143 100.573 853.229 100.573C853.634 100.573 853.904 100.978 855.524 102.192C845.671 121.079 835.818 140.101 824.886 161.011Z" fill="white"/>
<path d="M260.573 288.632C239.113 288.632 219.272 288.632 197.812 288.632C208.204 268.666 218.192 249.509 229.125 228.599C239.922 249.104 249.91 268.261 260.573 288.632Z" fill="white"/>
<path d="M626.209 228.329C637.142 249.105 646.995 268.261 657.658 288.497C636.467 288.497 616.762 288.497 595.031 288.497C605.424 268.126 615.412 249.105 626.209 228.329Z" fill="white"/>
<path d="M197.812 333.826C219.407 333.826 239.113 333.826 260.438 333.826C249.91 354.062 239.922 373.084 229.125 393.859C218.327 373.084 208.339 354.062 197.812 333.826Z" fill="white"/>
<path d="M1054.47 288.633C1032.88 288.633 1013.3 288.633 991.709 288.633C1002.37 268.262 1012.22 249.24 1023.02 228.6C1033.82 249.24 1043.81 268.262 1054.47 288.633Z" fill="white"/>
<path d="M1023.02 393.724C1012.36 373.218 1002.37 354.332 991.845 333.961C1013.04 333.961 1032.74 333.961 1054.2 333.961C1043.81 353.927 1033.82 373.084 1023.02 393.724Z" fill="white"/>
<path d="M793.707 520.4C804.235 500.164 814.223 481.277 824.885 461.041C835.548 481.412 845.401 500.299 855.929 520.4C834.873 520.4 815.167 520.4 793.707 520.4Z" fill="white"/>
<path d="M458.982 520.535C437.792 520.535 418.221 520.535 396.896 520.535C407.153 500.569 416.871 481.817 426.454 463.065C427.129 462.93 427.804 462.795 428.614 462.66C438.466 481.547 448.319 500.299 458.982 520.535Z" fill="white"/>
<path d="M62.1668 520.534C40.9764 520.534 21.4057 520.534 -0.0546875 520.534C10.473 500.434 20.3259 481.547 30.9886 461.041C41.5163 481.277 51.3692 500.164 62.1668 520.534Z" fill="white"/>
<path d="M1190.79 520.399C1201.32 500.298 1211.17 481.412 1221.84 461.176C1232.5 481.412 1242.35 500.298 1252.88 520.399C1231.69 520.399 1211.98 520.399 1190.79 520.399Z" fill="white"/>
</svg>
