<svg width="66" height="66" viewBox="0 0 66 66" fill="none" xmlns="http://www.w3.org/2000/svg">
<path fill-rule="evenodd" clip-rule="evenodd" d="M64.9088 32.7419C64.9088 50.2725 50.7306 64.4839 33.241 64.4839C15.7514 64.4839 1.57324 50.2725 1.57324 32.7419C1.57324 15.2114 15.7514 1 33.241 1C50.7306 1 64.9088 15.2114 64.9088 32.7419ZM48.0194 32.7417L24.7964 17.9288V47.5546L48.0194 32.7417Z" fill="white"/>
<path d="M24.7964 17.9288L25.3342 17.0857C25.0263 16.8893 24.6358 16.8764 24.3156 17.0519C23.9954 17.2275 23.7964 17.5636 23.7964 17.9288H24.7964ZM48.0194 32.7417L48.5572 33.5848C48.8451 33.4011 49.0194 33.0832 49.0194 32.7417C49.0194 32.4001 48.8451 32.0822 48.5572 31.8986L48.0194 32.7417ZM24.7964 47.5546H23.7964C23.7964 47.9197 23.9954 48.2559 24.3156 48.4314C24.6358 48.607 25.0263 48.594 25.3342 48.3977L24.7964 47.5546ZM33.241 65.4839C51.2851 65.4839 65.9088 50.8226 65.9088 32.7419H63.9088C63.9088 49.7225 50.1761 63.4839 33.241 63.4839V65.4839ZM0.573242 32.7419C0.573242 50.8226 15.1969 65.4839 33.241 65.4839V63.4839C16.3059 63.4839 2.57324 49.7225 2.57324 32.7419H0.573242ZM33.241 0C15.1969 0 0.573242 14.6613 0.573242 32.7419H2.57324C2.57324 15.7614 16.3059 2 33.241 2V0ZM65.9088 32.7419C65.9088 14.6613 51.2851 0 33.241 0V2C50.1761 2 63.9088 15.7614 63.9088 32.7419H65.9088ZM24.2586 18.7719L47.4816 33.5848L48.5572 31.8986L25.3342 17.0857L24.2586 18.7719ZM25.7964 47.5546V17.9288H23.7964V47.5546H25.7964ZM47.4816 31.8986L24.2586 46.7115L25.3342 48.3977L48.5572 33.5848L47.4816 31.8986Z" fill="white"/>
</svg>
