<svg width="147" height="9" viewBox="0 0 147 9" fill="none" xmlns="http://www.w3.org/2000/svg">
<path d="M7.06309 5.25178C6.73376 3.64971 6.96197 3.48108 9.30784 3.68915C10.4496 3.77951 11.6037 3.82864 12.764 3.8572C13.1894 3.85634 13.8743 3.81721 14.0275 3.66248C15.2997 2.38665 17.3892 2.73937 19.0594 2.83896C24.4548 3.15411 29.7652 2.69726 35.0257 2.17186C45.9841 1.07902 57.0087 0.58662 68.0368 0.20061C75.59 -0.058281 83.1651 -0.039227 90.7029 0.103453C95.1095 0.173507 99.5292 0.202353 103.936 0.272407C104.608 0.274483 105.331 0.345097 105.878 0.525887C106.135 0.6146 106.188 1.25626 105.979 1.36308C104.956 1.81472 103.859 2.28026 102.439 2.05661C100.819 1.79219 99.227 2.01846 97.5973 2.135C93.347 2.48333 89.0811 2.76649 84.7934 3.23845C86.626 3.26908 88.4405 3.36151 90.2857 3.35091C95.0397 3.32761 99.8059 3.2631 104.523 3.83014C105.755 3.9718 107.072 3.95201 108.326 3.90488C112.877 3.73438 117.362 4.13031 121.825 4.48168C122.864 4.56195 123.899 4.53585 124.956 4.55431C126.22 4.59295 127.502 4.56978 128.788 4.65298C133.667 4.91771 138.528 5.24425 143.354 5.56742C144.254 5.63425 145.224 5.70778 146.053 5.89488C146.384 5.96971 146.704 6.3191 146.676 6.52851C146.654 6.7173 146.141 7.00665 145.813 7.03818C145.025 7.06725 144.199 6.98655 143.401 6.92981C132.448 6.13508 121.494 5.34034 110.547 4.525C110.306 4.50147 110.1 4.48127 109.853 4.47834C109.75 4.46827 109.581 4.55784 109.574 4.57844C109.618 4.66757 109.712 4.82528 109.815 4.83535C112.287 5.09808 114.792 5.36415 117.275 5.58565C120.275 5.85758 123.253 6.08494 126.252 6.35691C126.803 6.41071 127.369 6.52967 127.847 6.70374C128.104 6.79244 128.311 7.04601 128.295 7.21421C128.279 7.38241 127.979 7.67128 127.76 7.69231C126.609 7.74955 125.459 7.80678 124.345 7.74038C122.744 7.64751 121.145 7.42768 119.556 7.29358C118.799 7.21961 118.18 7.39245 117.996 7.88361C117.709 8.59801 116.724 8.69267 115.81 8.66704C114.403 8.63557 113.039 8.45984 111.65 8.36657C102.786 7.69117 93.8472 7.26305 84.8957 7.10948C75.8348 6.96645 66.7616 6.86461 57.6849 6.88975C46.9762 6.92508 36.2702 7.06675 25.5894 7.35941C19.4468 7.52278 13.295 8.06714 7.17127 8.40207C6.02032 8.4593 4.86618 8.41017 3.71526 8.46737C1.66669 8.56417 0.965548 7.60464 0.0987471 6.84107C-0.261125 6.50891 0.417159 5.79025 1.2522 5.72338C2.37498 5.64218 3.55102 5.73588 4.70198 5.67865C5.53076 5.63238 6.62565 5.99395 7.04119 5.20721C7.31642 5.23411 7.55727 5.25764 7.83253 5.28454C7.76996 5.2572 7.74803 5.21264 7.67922 5.2059C7.4603 5.22694 7.27578 5.25135 7.06309 5.25178ZM89.8875 1.50876C89.8902 1.38177 89.8528 1.27202 89.8559 1.14503C88.2639 1.13795 86.6657 1.15147 85.0799 1.12379C74.3832 0.884505 63.7338 1.3075 53.0628 1.9193C52.4871 1.94791 51.9272 2.04172 51.3396 2.11154C51.2299 2.12206 51.0956 2.21498 51.0894 2.23559C51.1676 2.32809 51.2676 2.46518 51.3992 2.49923C51.7371 2.55346 52.0746 2.60769 52.4313 2.60011C58.1235 2.52 63.8096 2.46048 69.5145 2.33916C75.438 2.19681 81.3461 1.98929 87.2542 1.78176C88.1516 1.7422 89.0117 1.59289 89.8875 1.50876ZM106.616 4.75601C106.315 4.57815 106.181 4.43771 106.009 4.42088C105.59 4.40115 105.146 4.46381 104.714 4.48528C104.861 4.58451 104.996 4.72494 105.168 4.74174C105.58 4.7821 106.012 4.76065 106.616 4.75601ZM77.7794 5.22594C77.8948 5.1948 77.9764 5.16035 78.0919 5.12921C78.001 5.07791 77.8824 5.00267 77.7851 4.97197C77.7508 4.9686 77.6509 5.06491 77.5635 5.11998C77.5916 5.14395 77.6824 5.19524 77.7794 5.22594ZM96.7509 4.11007C96.6478 4.09997 96.5789 4.09328 96.4758 4.08318C96.5381 4.11051 96.6289 4.16181 96.6916 4.18915C96.6978 4.16855 96.704 4.14794 96.7509 4.11007Z" fill="#D05D45"/>
</svg>
