<svg width="19" height="19" viewBox="0 0 19 19" fill="none" xmlns="http://www.w3.org/2000/svg">
<path fill-rule="evenodd" clip-rule="evenodd" d="M0.292904 18.6777C0.683428 19.0682 1.31659 19.0682 1.70712 18.6777L9.48529 10.8995L17.2635 18.6777C17.654 19.0682 18.2871 19.0682 18.6777 18.6777C19.0682 18.2871 19.0682 17.654 18.6777 17.2635L10.8995 9.48529L18.6777 1.70711C19.0682 1.31658 19.0682 0.683418 18.6777 0.292893C18.2872 -0.0976312 17.654 -0.097631 17.2635 0.292893L9.48529 8.07107L1.70711 0.292894C1.31658 -0.0976306 0.683418 -0.0976304 0.292893 0.292894C-0.0976311 0.683418 -0.0976311 1.31658 0.292893 1.70711L8.07107 9.48529L0.292903 17.2635C-0.0976211 17.654 -0.0976209 18.2871 0.292904 18.6777Z" fill="#FFF9ED"/>
</svg>
