<svg width="26" height="25" viewBox="0 0 26 25" xmlns="http://www.w3.org/2000/svg">
<g clip-path="url(#clip0_916_5860)">
<path d="M12.3532 6.29609C12.5168 5.77555 12.6 5.23313 12.6001 4.6875C12.6001 2.10234 10.8478 0 8.69387 0C6.53997 0 4.78762 2.10234 4.78762 4.6875C4.78771 5.23313 4.87095 5.77555 5.0345 6.29609C3.84844 7.54761 3.19904 9.21345 3.22512 10.9375C3.17959 12.2164 3.53049 13.478 4.22976 14.5497C4.92904 15.6214 5.9425 16.4508 7.13137 16.9242V21.875H8.69387V11.7188C8.69387 11.5115 8.77618 11.3128 8.9227 11.1663C9.06921 11.0198 9.26792 10.9375 9.47512 10.9375C9.68232 10.9375 9.88104 11.0198 10.0275 11.1663C10.1741 11.3128 10.2564 11.5115 10.2564 11.7188V16.9242C11.4452 16.4508 12.4587 15.6214 13.158 14.5497C13.8573 13.478 14.2082 12.2164 14.1626 10.9375C14.1887 9.21345 13.5393 7.54761 12.3532 6.29609Z" />
<path d="M20.1658 6.29609C20.3294 5.77555 20.4126 5.23313 20.4127 4.6875C20.4127 2.10234 18.6604 0 16.5064 0C15.9039 0.0163198 15.3146 0.180021 14.79 0.476786C14.2654 0.773551 13.8214 1.19434 13.4971 1.70234C14.1097 3.00408 14.3059 4.46314 14.0588 5.88047C15.159 7.33509 15.7451 9.11379 15.7252 10.9375C15.7435 12.9135 15.0522 14.8305 13.7768 16.3398C14.3643 16.733 15.0283 16.9976 15.7252 17.1164V21.875H17.2877V17.1164C19.9338 16.6805 21.9752 14.0797 21.9752 10.9375C22.0013 9.21345 21.3519 7.54761 20.1658 6.29609Z" />
<path d="M24.8071 16.6973C24.048 16.0925 23.2456 15.5442 22.4063 15.0566C22.1429 15.511 21.8346 15.9379 21.486 16.3309C22.1996 16.7363 22.885 17.1894 23.5376 17.6871V23.4379H1.6626V17.6871C2.31234 17.1918 2.99489 16.741 3.70557 16.3379C3.35287 15.9483 3.04132 15.5234 2.77588 15.0699C1.94301 15.5536 1.14662 16.0975 0.393066 16.6973C0.30171 16.7704 0.227953 16.8631 0.177244 16.9686C0.126535 17.0741 0.100171 17.1896 0.100098 17.3066L0.100098 24.2191C0.100098 24.4263 0.182408 24.6251 0.32892 24.7716C0.475433 24.9181 0.674147 25.0004 0.881348 25.0004H24.3188C24.526 25.0004 24.7248 24.9181 24.8713 24.7716C25.0178 24.6251 25.1001 24.4263 25.1001 24.2191V17.3066C25.1 17.1896 25.0737 17.0741 25.023 16.9686C24.9722 16.8631 24.8985 16.7704 24.8071 16.6973Z" />
</g>
<defs>
<clipPath id="clip0_916_5860">
<rect width="25" height="25" fill="white" transform="translate(0.100098)"/>
</clipPath>
</defs>
</svg>
