<svg width="32" height="32" viewBox="0 0 32 32" fill="none" xmlns="http://www.w3.org/2000/svg">
<path fill-rule="evenodd" clip-rule="evenodd" d="M21.5 7.91414L21.5 26.707L20.5 26.707L20.5 7.91414L18.3535 10.0606L17.6464 9.35348L21 5.99992L24.3535 9.35348L23.6464 10.0606L21.5 7.91414Z" fill="#363844"/>
<path d="M7.36914 14V13.6016L10.1465 5.59766H11.5352L14.2949 13.6016V14H13.0586L12.2793 11.6504H9.19727L8.44141 14H7.36914ZM10.7207 6.98047L9.50781 10.6895H11.957L10.7441 6.98047H10.7207Z" fill="#363844"/>
<path d="M7.32227 27V25.957L11.7285 19.6172V19.582H7.65039V18.5977H13.1055V19.6699L8.7168 26.0039V26.0391H13.0586V27H7.32227Z" fill="#363844"/>
</svg>
