<svg width="26" height="25" viewBox="0 0 26 25"  xmlns="http://www.w3.org/2000/svg">
<g clip-path="url(#clip0_916_5867)">
<path d="M7.63066 9.74551L7.42676 8.19551L8.20176 8.09394C8.81504 8.01582 9.46973 7.94941 10.2025 7.89785L10.9838 7.84473L11.0916 9.40332L10.3104 9.45723C9.61973 9.50488 8.98223 9.56738 8.40488 9.64316L7.63066 9.74551Z" />
<path d="M17.5698 9.74551L16.7956 9.64316C16.2214 9.56504 15.5808 9.50488 14.8901 9.45723L14.1089 9.40332L14.2167 7.84473L14.9979 7.89785C15.7308 7.94941 16.3854 8.01348 16.9987 8.09394L17.7737 8.19551L17.5698 9.74551Z" />
<path d="M21.6196 9.17383C22.625 9.50027 23.5465 10.0435 24.3188 10.7652C24.9259 11.3902 24.3188 11.7184 25.1001 12.4996" />
<path d="M12.6001 0C10.1278 0 7.71109 0.733112 5.65548 2.10663C3.59986 3.48015 1.9977 5.43238 1.05161 7.71646C0.105514 10.0005 -0.142028 12.5139 0.340287 14.9386C0.822603 17.3634 2.01311 19.5907 3.76127 21.3388C5.50943 23.087 7.73671 24.2775 10.1615 24.7598C12.5862 25.2421 15.0996 24.9946 17.3836 24.0485C19.6677 23.1024 21.62 21.5002 22.9935 19.4446C24.367 17.389 25.1001 14.9723 25.1001 12.5C25.0962 9.186 23.778 6.00886 21.4346 3.6655C19.0912 1.32215 15.9141 0.00392838 12.6001 0V0ZM12.6001 1.5625C15.0502 1.56655 17.428 2.39246 19.3531 3.90803C21.2782 5.42361 22.6391 7.5412 23.2181 9.92188C22.7084 9.62552 22.1735 9.37481 21.6196 9.17266L20.8876 8.89922L20.3407 10.3625L21.0728 10.6359C22.8899 11.318 23.5376 12.0461 23.5376 12.5C23.5376 13.7742 19.2767 15.625 12.6001 15.625C5.92354 15.625 1.6626 13.7742 1.6626 12.5C1.6626 12.0461 2.31026 11.318 4.12823 10.6375L4.86026 10.3641L4.31338 8.90078L3.58135 9.17422C3.02709 9.37693 2.49192 9.62844 1.98213 9.92578C2.56049 7.54445 3.92114 5.42605 5.84624 3.90974C7.77135 2.39342 10.1496 1.5669 12.6001 1.5625Z" />
</g>
<defs>
<clipPath id="clip0_916_5867">
<rect width="25" height="25"  transform="translate(0.100098)"/>
</clipPath>
</defs>
</svg>
